M48
; DRILL file {KiCad (6.0.6)} date Tue Jul 26 20:01:22 2022
; FORMAT={-:-/ absolute / metric / decimal}
; #@! TF.CreationDate,2022-07-26T20:01:22-05:00
; #@! TF.GenerationSoftware,Kicad,Pcbnew,(6.0.6)
; #@! TF.FileFunction,MixedPlating,1,2
FMAT,2
METRIC
; #@! TA.AperFunction,Plated,PTH,ViaDrill
T1C0.300
; #@! TA.AperFunction,Plated,PTH,ComponentDrill
T2C0.550
; #@! TA.AperFunction,Plated,PTH,ComponentDrill
T3C0.850
; #@! TA.AperFunction,Plated,PTH,ComponentDrill
T4C1.000
; #@! TA.AperFunction,NonPlated,NPTH,ComponentDrill
T5C0.800
%
G90
G05
T1
X121.5Y-44.25
X121.5Y-55.5
X127.75Y-40.75
X128.0Y-46.75
X129.95Y-43.25
X131.75Y-34.75
X133.45Y-52.3
X133.465Y-47.473
X134.0Y-46.75
X135.0Y-47.25
X135.0Y-53.25
X135.975Y-39.775
X136.8Y-36.2
X137.525Y-49.175
X138.4Y-44.7
X139.65Y-49.889
X141.85Y-53.75
X142.45Y-54.725
X143.2Y-36.45
X149.75Y-49.25
T4
X125.68Y-57.525
X126.39Y-27.57
X128.22Y-57.525
X128.93Y-27.57
X130.76Y-57.525
X131.47Y-27.57
X133.3Y-57.525
X134.01Y-27.57
X135.84Y-57.525
X136.55Y-27.57
X138.38Y-57.525
X139.09Y-27.57
X140.92Y-57.525
X141.63Y-27.57
X143.46Y-57.525
X144.17Y-27.57
X146.0Y-57.525
X146.71Y-27.57
X148.54Y-57.525
X151.08Y-57.525
X153.62Y-33.345
X153.62Y-35.885
X153.62Y-38.425
X153.62Y-40.965
X153.62Y-43.505
X153.62Y-46.045
X153.62Y-48.585
X153.62Y-51.125
X153.62Y-57.525
T5
X124.825Y-36.345
X124.825Y-41.345
T2
G00X122.4Y-34.97
M15
G01X121.75Y-34.97
M16
G05
G00X122.4Y-42.72
M15
G01X121.75Y-42.72
M16
G05
T3
G00X126.15Y-35.12
M15
G01X125.6Y-35.12
M16
G05
G00X126.15Y-42.57
M15
G01X125.6Y-42.57
M16
G05
T0
M30
