%TF.GenerationSoftware,KiCad,Pcbnew,(6.0.6)*%
%TF.CreationDate,2022-07-26T20:01:32-05:00*%
%TF.ProjectId,Arduino_Clone,41726475-696e-46f5-9f43-6c6f6e652e6b,rev?*%
%TF.SameCoordinates,Original*%
%TF.FileFunction,Soldermask,Top*%
%TF.FilePolarity,Negative*%
%FSLAX46Y46*%
G04 Gerber Fmt 4.6, Leading zero omitted, Abs format (unit mm)*
G04 Created by KiCad (PCBNEW (6.0.6)) date 2022-07-26 20:01:32*
%MOMM*%
%LPD*%
G01*
G04 APERTURE LIST*
G04 Aperture macros list*
%AMRoundRect*
0 Rectangle with rounded corners*
0 $1 Rounding radius*
0 $2 $3 $4 $5 $6 $7 $8 $9 X,Y pos of 4 corners*
0 Add a 4 corners polygon primitive as box body*
4,1,4,$2,$3,$4,$5,$6,$7,$8,$9,$2,$3,0*
0 Add four circle primitives for the rounded corners*
1,1,$1+$1,$2,$3*
1,1,$1+$1,$4,$5*
1,1,$1+$1,$6,$7*
1,1,$1+$1,$8,$9*
0 Add four rect primitives between the rounded corners*
20,1,$1+$1,$2,$3,$4,$5,0*
20,1,$1+$1,$4,$5,$6,$7,0*
20,1,$1+$1,$6,$7,$8,$9,0*
20,1,$1+$1,$8,$9,$2,$3,0*%
G04 Aperture macros list end*
%ADD10RoundRect,0.250000X-0.475000X0.337500X-0.475000X-0.337500X0.475000X-0.337500X0.475000X0.337500X0*%
%ADD11RoundRect,0.250000X0.337500X0.475000X-0.337500X0.475000X-0.337500X-0.475000X0.337500X-0.475000X0*%
%ADD12O,0.800000X0.800000*%
%ADD13R,1.300000X0.450000*%
%ADD14O,2.000000X1.450000*%
%ADD15O,1.800000X1.150000*%
%ADD16R,1.500000X0.550000*%
%ADD17R,0.550000X1.500000*%
%ADD18R,1.300000X1.550000*%
%ADD19RoundRect,0.250000X-0.350000X-0.450000X0.350000X-0.450000X0.350000X0.450000X-0.350000X0.450000X0*%
%ADD20RoundRect,0.250000X0.325000X0.450000X-0.325000X0.450000X-0.325000X-0.450000X0.325000X-0.450000X0*%
%ADD21RoundRect,0.250000X-0.450000X0.350000X-0.450000X-0.350000X0.450000X-0.350000X0.450000X0.350000X0*%
%ADD22R,1.700000X1.700000*%
%ADD23O,1.700000X1.700000*%
%ADD24RoundRect,0.250000X0.475000X-0.337500X0.475000X0.337500X-0.475000X0.337500X-0.475000X-0.337500X0*%
%ADD25R,1.400000X1.200000*%
%ADD26RoundRect,0.250000X0.450000X-0.350000X0.450000X0.350000X-0.450000X0.350000X-0.450000X-0.350000X0*%
G04 APERTURE END LIST*
D10*
%TO.C,C6*%
X137520000Y-51592500D03*
X137520000Y-53667500D03*
%TD*%
D11*
%TO.C,C2*%
X145177500Y-32500000D03*
X143102500Y-32500000D03*
%TD*%
D12*
%TO.C,J4*%
X124825000Y-41345000D03*
X124825000Y-36345000D03*
D13*
X125925000Y-37545000D03*
X125925000Y-38195000D03*
X125925000Y-38845000D03*
X125925000Y-39495000D03*
X125925000Y-40145000D03*
D14*
X125875000Y-35120000D03*
D15*
X122075000Y-34970000D03*
X122075000Y-42720000D03*
D14*
X125875000Y-42570000D03*
%TD*%
D16*
%TO.C,U1*%
X134300000Y-36580000D03*
X134300000Y-37380000D03*
X134300000Y-38180000D03*
X134300000Y-38980000D03*
X134300000Y-39780000D03*
X134300000Y-40580000D03*
X134300000Y-41380000D03*
X134300000Y-42180000D03*
X134300000Y-42980000D03*
X134300000Y-43780000D03*
X134300000Y-44580000D03*
D17*
X136000000Y-46280000D03*
X136800000Y-46280000D03*
X137600000Y-46280000D03*
X138400000Y-46280000D03*
X139200000Y-46280000D03*
X140000000Y-46280000D03*
X140800000Y-46280000D03*
X141600000Y-46280000D03*
X142400000Y-46280000D03*
X143200000Y-46280000D03*
X144000000Y-46280000D03*
D16*
X145700000Y-44580000D03*
X145700000Y-43780000D03*
X145700000Y-42980000D03*
X145700000Y-42180000D03*
X145700000Y-41380000D03*
X145700000Y-40580000D03*
X145700000Y-39780000D03*
X145700000Y-38980000D03*
X145700000Y-38180000D03*
X145700000Y-37380000D03*
X145700000Y-36580000D03*
D17*
X144000000Y-34880000D03*
X143200000Y-34880000D03*
X142400000Y-34880000D03*
X141600000Y-34880000D03*
X140800000Y-34880000D03*
X140000000Y-34880000D03*
X139200000Y-34880000D03*
X138400000Y-34880000D03*
X137600000Y-34880000D03*
X136800000Y-34880000D03*
X136000000Y-34880000D03*
%TD*%
D18*
%TO.C,SW1*%
X121500000Y-53725000D03*
X121500000Y-45775000D03*
X126000000Y-53725000D03*
X126000000Y-45775000D03*
%TD*%
D19*
%TO.C,R4*%
X129870000Y-37560000D03*
X131870000Y-37560000D03*
%TD*%
D11*
%TO.C,C1*%
X135537500Y-48750000D03*
X133462500Y-48750000D03*
%TD*%
D20*
%TO.C,D1*%
X127765000Y-32630000D03*
X125715000Y-32630000D03*
%TD*%
D21*
%TO.C,R1*%
X128000000Y-48000000D03*
X128000000Y-50000000D03*
%TD*%
D11*
%TO.C,C7*%
X132037500Y-41750000D03*
X129962500Y-41750000D03*
%TD*%
D10*
%TO.C,C4*%
X148350000Y-45962500D03*
X148350000Y-48037500D03*
%TD*%
D22*
%TO.C,J3*%
X153620000Y-57525000D03*
D23*
X151080000Y-57525000D03*
X148540000Y-57525000D03*
X146000000Y-57525000D03*
X143460000Y-57525000D03*
X140920000Y-57525000D03*
X138380000Y-57525000D03*
X135840000Y-57525000D03*
X133300000Y-57525000D03*
X130760000Y-57525000D03*
X128220000Y-57525000D03*
X125680000Y-57525000D03*
%TD*%
D19*
%TO.C,R3*%
X129870000Y-39620000D03*
X131870000Y-39620000D03*
%TD*%
D24*
%TO.C,C5*%
X143960000Y-53857500D03*
X143960000Y-51782500D03*
%TD*%
D22*
%TO.C,J1*%
X126390000Y-27570000D03*
D23*
X128930000Y-27570000D03*
X131470000Y-27570000D03*
X134010000Y-27570000D03*
X136550000Y-27570000D03*
X139090000Y-27570000D03*
X141630000Y-27570000D03*
X144170000Y-27570000D03*
X146710000Y-27570000D03*
%TD*%
D25*
%TO.C,Y1*%
X141850000Y-50900000D03*
X139650000Y-50900000D03*
X139650000Y-52600000D03*
X141850000Y-52600000D03*
%TD*%
D22*
%TO.C,J2*%
X153620000Y-33345000D03*
D23*
X153620000Y-35885000D03*
X153620000Y-38425000D03*
X153620000Y-40965000D03*
X153620000Y-43505000D03*
X153620000Y-46045000D03*
X153620000Y-48585000D03*
X153620000Y-51125000D03*
%TD*%
D11*
%TO.C,C3*%
X135537500Y-50910000D03*
X133462500Y-50910000D03*
%TD*%
D26*
%TO.C,R2*%
X129920000Y-34750000D03*
X129920000Y-32750000D03*
%TD*%
M02*
